<svg width="1600" height="1200" viewBox="0 0 1600 1200" fill="none" xmlns="http://www.w3.org/2000/svg">
  <rect width="1600" height="1200" rx="48" fill="#F3F7FB"/>
  <text x="80" y="90" fill="#143B63" font-family="Georgia, serif" font-size="42" font-weight="700">Tutor Website Wireframe</text>
  <text x="80" y="132" fill="#506176" font-family="Trebuchet MS, Verdana, sans-serif" font-size="22">Low-fidelity layout for the assignment PDF</text>

  <g transform="translate(80 190)">
    <rect width="680" height="420" rx="28" fill="#FFFFFF" stroke="#C9D6E4" stroke-width="3"/>
    <text x="30" y="46" fill="#0C2742" font-family="Georgia, serif" font-size="30" font-weight="700">Homepage</text>
    <rect x="30" y="70" width="620" height="110" rx="20" fill="#EAF2F7" stroke="#C9D6E4" stroke-width="2"/>
    <text x="54" y="128" fill="#143B63" font-family="Trebuchet MS, Verdana, sans-serif" font-size="22">Hero: brand, headline, intro, CTAs</text>
    <rect x="30" y="204" width="300" height="74" rx="16" fill="#FFFFFF" stroke="#C9D6E4" stroke-width="2"/>
    <rect x="350" y="204" width="300" height="74" rx="16" fill="#FFFFFF" stroke="#C9D6E4" stroke-width="2"/>
    <text x="72" y="248" fill="#506176" font-family="Trebuchet MS, Verdana, sans-serif" font-size="20">Goals</text>
    <text x="420" y="248" fill="#506176" font-family="Trebuchet MS, Verdana, sans-serif" font-size="20">Audience</text>
    <rect x="30" y="302" width="190" height="88" rx="16" fill="#FFFFFF" stroke="#C9D6E4" stroke-width="2"/>
    <rect x="245" y="302" width="190" height="88" rx="16" fill="#FFFFFF" stroke="#C9D6E4" stroke-width="2"/>
    <rect x="460" y="302" width="190" height="88" rx="16" fill="#FFFFFF" stroke="#C9D6E4" stroke-width="2"/>
    <text x="63" y="352" fill="#506176" font-family="Trebuchet MS, Verdana, sans-serif" font-size="18">Service card</text>
    <text x="278" y="352" fill="#506176" font-family="Trebuchet MS, Verdana, sans-serif" font-size="18">Service card</text>
    <text x="493" y="352" fill="#506176" font-family="Trebuchet MS, Verdana, sans-serif" font-size="18">Service card</text>
  </g>

  <g transform="translate(840 190)">
    <rect width="680" height="420" rx="28" fill="#FFFFFF" stroke="#C9D6E4" stroke-width="3"/>
    <text x="30" y="46" fill="#0C2742" font-family="Georgia, serif" font-size="30" font-weight="700">About Page</text>
    <rect x="30" y="70" width="620" height="92" rx="20" fill="#EAF2F7" stroke="#C9D6E4" stroke-width="2"/>
    <text x="52" y="123" fill="#143B63" font-family="Trebuchet MS, Verdana, sans-serif" font-size="22">Intro: story + center overview</text>
    <rect x="30" y="188" width="300" height="182" rx="16" fill="#FFFFFF" stroke="#C9D6E4" stroke-width="2"/>
    <rect x="350" y="188" width="300" height="182" rx="16" fill="#FFFFFF" stroke="#C9D6E4" stroke-width="2"/>
    <text x="98" y="280" fill="#506176" font-family="Trebuchet MS, Verdana, sans-serif" font-size="20">Owner bio</text>
    <text x="430" y="280" fill="#506176" font-family="Trebuchet MS, Verdana, sans-serif" font-size="20">Mission panel</text>
  </g>

  <g transform="translate(80 680)">
    <rect width="680" height="420" rx="28" fill="#FFFFFF" stroke="#C9D6E4" stroke-width="3"/>
    <text x="30" y="46" fill="#0C2742" font-family="Georgia, serif" font-size="30" font-weight="700">Services Page</text>
    <rect x="30" y="70" width="620" height="92" rx="20" fill="#EAF2F7" stroke="#C9D6E4" stroke-width="2"/>
    <text x="58" y="123" fill="#143B63" font-family="Trebuchet MS, Verdana, sans-serif" font-size="22">Programs overview + pricing note</text>
    <rect x="30" y="188" width="190" height="108" rx="16" fill="#FFFFFF" stroke="#C9D6E4" stroke-width="2"/>
    <rect x="245" y="188" width="190" height="108" rx="16" fill="#FFFFFF" stroke="#C9D6E4" stroke-width="2"/>
    <rect x="460" y="188" width="190" height="108" rx="16" fill="#FFFFFF" stroke="#C9D6E4" stroke-width="2"/>
    <text x="82" y="248" fill="#506176" font-family="Trebuchet MS, Verdana, sans-serif" font-size="18">Program</text>
    <text x="297" y="248" fill="#506176" font-family="Trebuchet MS, Verdana, sans-serif" font-size="18">Program</text>
    <text x="512" y="248" fill="#506176" font-family="Trebuchet MS, Verdana, sans-serif" font-size="18">Program</text>
    <rect x="30" y="320" width="300" height="72" rx="16" fill="#FFFFFF" stroke="#C9D6E4" stroke-width="2"/>
    <rect x="350" y="320" width="300" height="72" rx="16" fill="#FFFFFF" stroke="#C9D6E4" stroke-width="2"/>
    <text x="86" y="364" fill="#506176" font-family="Trebuchet MS, Verdana, sans-serif" font-size="20">Schedule</text>
    <text x="467" y="364" fill="#506176" font-family="Trebuchet MS, Verdana, sans-serif" font-size="20">FAQs</text>
  </g>

  <g transform="translate(840 680)">
    <rect width="680" height="420" rx="28" fill="#FFFFFF" stroke="#C9D6E4" stroke-width="3"/>
    <text x="30" y="46" fill="#0C2742" font-family="Georgia, serif" font-size="30" font-weight="700">Contact Page</text>
    <rect x="30" y="70" width="620" height="92" rx="20" fill="#EAF2F7" stroke="#C9D6E4" stroke-width="2"/>
    <text x="65" y="123" fill="#143B63" font-family="Trebuchet MS, Verdana, sans-serif" font-size="22">Contact intro + enquiry CTA</text>
    <rect x="30" y="188" width="620" height="176" rx="16" fill="#FFFFFF" stroke="#C9D6E4" stroke-width="2"/>
    <text x="254" y="278" fill="#506176" font-family="Trebuchet MS, Verdana, sans-serif" font-size="20">Contact cards</text>
    <rect x="30" y="384" width="300" height="92" rx="16" fill="#FFFFFF" stroke="#C9D6E4" stroke-width="2"/>
    <rect x="350" y="384" width="300" height="92" rx="16" fill="#FFFFFF" stroke="#C9D6E4" stroke-width="2"/>
    <text x="98" y="438" fill="#506176" font-family="Trebuchet MS, Verdana, sans-serif" font-size="20">Form</text>
    <text x="431" y="438" fill="#506176" font-family="Trebuchet MS, Verdana, sans-serif" font-size="20">Map / Hours</text>
  </g>
</svg>
